<svg xmlns="http://www.w3.org/2000/svg" viewBox="0 0 445 389.36"><defs><style>.cls-1{fill:#c2ad98;}</style></defs><title>tanzania-flag-codehounds-coffee</title><g id="Layer_2" data-name="Layer 2"><g id="Layer_1-2" data-name="Layer 1"><path class="cls-1" d="M9.7,352.93a20,20,0,0,0-7,7.05,19.59,19.59,0,0,0,0,19.68,20.06,20.06,0,0,0,7,7,18.93,18.93,0,0,0,9.84,2.66h3.67V382H19.54a11.74,11.74,0,0,1-6.12-1.65A12.67,12.67,0,0,1,9,375.94a11.77,11.77,0,0,1-1.65-6.12A11.59,11.59,0,0,1,9,363.69a12.67,12.67,0,0,1,4.44-4.44,11.74,11.74,0,0,1,6.12-1.64h3.67v-7.34H19.54A18.93,18.93,0,0,0,9.7,352.93Z"/><path class="cls-1" d="M71.82,352.93a19.53,19.53,0,0,0-19.68,0,20,20,0,0,0-7,7.05,19.59,19.59,0,0,0,0,19.68,20.06,20.06,0,0,0,7,7,19.53,19.53,0,0,0,19.68,0,20.14,20.14,0,0,0,7.05-7,19.59,19.59,0,0,0,0-19.68A20.09,20.09,0,0,0,71.82,352.93Zm-9.92,4.75A11.8,11.8,0,0,1,68,359.32a12.78,12.78,0,0,1,4.44,4.45,11.55,11.55,0,0,1,1.64,6.12A11.72,11.72,0,0,1,72.47,376,12.56,12.56,0,0,1,68,380.44a12.24,12.24,0,0,1-12.24,0A12.4,12.4,0,0,1,51.35,376a12.32,12.32,0,0,1,0-12.25,12.64,12.64,0,0,1,4.44-4.43A11.72,11.72,0,0,1,61.9,357.68Z"/><path class="cls-1" d="M110.72,352.93a18.87,18.87,0,0,0-9.83-2.66H97.22v7.34h3.67a11.55,11.55,0,0,1,6.12,1.64,12.75,12.75,0,0,1,4.44,4.44,11.59,11.59,0,0,1,1.65,6.13,11.77,11.77,0,0,1-1.65,6.12,12.67,12.67,0,0,1-4.44,4.44,11.56,11.56,0,0,1-6.12,1.65H97.22v7.33h3.67a18.87,18.87,0,0,0,9.83-2.66,20.09,20.09,0,0,0,7.06-7,19.59,19.59,0,0,0,0-19.68A20.11,20.11,0,0,0,110.72,352.93Z"/><rect class="cls-1" x="137.14" y="350.27" width="24.17" height="7.38"/><path class="cls-1" d="M142.94,367.39a12.21,12.21,0,0,0-4.21,4.21,11.32,11.32,0,0,0-1.59,5.9,11.58,11.58,0,0,0,1.59,6.05,12,12,0,0,0,4.21,4.21,11.33,11.33,0,0,0,5.9,1.6H161.3V382H148.84a4.11,4.11,0,0,1-3-1.26,4.29,4.29,0,0,1-1.27-3.19,4.07,4.07,0,0,1,1.27-3,4.12,4.12,0,0,1,3-1.27H161.3v-7.4H148.84A11.35,11.35,0,0,0,142.94,367.39Z"/><polygon class="cls-1" points="211.02 366.15 198.67 366.15 198.67 350.27 191.32 350.27 191.32 389.36 198.67 389.36 198.67 373.48 211.02 373.48 211.02 389.36 218.38 389.36 218.38 350.27 211.02 350.27 211.02 366.15"/><path class="cls-1" d="M264.47,352.93a19.53,19.53,0,0,0-19.68,0,20,20,0,0,0-7,7.05,19.59,19.59,0,0,0,0,19.68,20.06,20.06,0,0,0,7,7,19.53,19.53,0,0,0,19.68,0,20.14,20.14,0,0,0,7-7,19.59,19.59,0,0,0,0-19.68A20.09,20.09,0,0,0,264.47,352.93Zm2.29,17a11.63,11.63,0,0,1-1.64,6.12,12.56,12.56,0,0,1-4.44,4.43,12.24,12.24,0,0,1-12.24,0A12.48,12.48,0,0,1,244,376a12.32,12.32,0,0,1,0-12.25,12.64,12.64,0,0,1,4.44-4.43,12.21,12.21,0,0,1,12.24,0,12.78,12.78,0,0,1,4.44,4.45A11.55,11.55,0,0,1,266.76,369.89Z"/><path class="cls-1" d="M309,377.55a4,4,0,0,1-1.49,3.09,5.48,5.48,0,0,1-3.82,1.39,5.71,5.71,0,0,1-4-1.39,4,4,0,0,1-1.47-3.09V350.27h-7.36v27.28a10.89,10.89,0,0,0,1.76,6,12.62,12.62,0,0,0,4.59,4.23,13.28,13.28,0,0,0,6.46,1.57,13,13,0,0,0,6.32-1.57,12.43,12.43,0,0,0,4.57-4.24,10.9,10.9,0,0,0,1.75-6V350.27H309Z"/><path class="cls-1" d="M356.32,381.26a.68.68,0,0,1-.22.54.86.86,0,0,1-1.06.06.75.75,0,0,1-.28-.45l-5.1-24.69a8.11,8.11,0,0,0-2.84-4.64,8.15,8.15,0,0,0-13.28,6.3v30.95h7.36V358.38a.69.69,0,0,1,.22-.55.88.88,0,0,1,1.07-.06.8.8,0,0,1,.28.45l5.1,24.7a8.1,8.1,0,0,0,2.83,4.63,8,8,0,0,0,5.18,1.81,8.09,8.09,0,0,0,8.1-8.1v-31h-7.36Z"/><path class="cls-1" d="M393.39,352.93a18.93,18.93,0,0,0-9.84-2.66h-3.66v7.34h3.66a11.59,11.59,0,0,1,6.13,1.64,12.84,12.84,0,0,1,4.44,4.44,12.26,12.26,0,0,1,0,12.25,12.75,12.75,0,0,1-4.44,4.44,11.62,11.62,0,0,1-6.13,1.65h-3.66v7.33h3.66a18.93,18.93,0,0,0,9.84-2.66,20.14,20.14,0,0,0,7.05-7,19.59,19.59,0,0,0,0-19.68A20.09,20.09,0,0,0,393.39,352.93Z"/><path class="cls-1" d="M438.68,351.84a13.37,13.37,0,0,0-6.49-1.57,12.64,12.64,0,0,0-8.1,2.76,11.77,11.77,0,0,0-4.35,7.14l-.13.95a8.51,8.51,0,0,0-.06,1c0,.3,0,.6,0,.92l.11,1.09a9.36,9.36,0,0,0,2.7,5.29,13,13,0,0,0,4.48,2.74,38.67,38.67,0,0,0,4.61,1.37,34.12,34.12,0,0,1,3.91,1.14,4.28,4.28,0,0,1,1.81,1.14,2.92,2.92,0,0,1,.46,1.78,4,4,0,0,1-1.49,3.09,5.74,5.74,0,0,1-4,1.39,5.47,5.47,0,0,1-3.81-1.39,4.64,4.64,0,0,1-1.47-3.67V375.5h-7.36V377a11.94,11.94,0,0,0,1.76,6.59,12.62,12.62,0,0,0,4.59,4.23,13.28,13.28,0,0,0,6.46,1.57,12.78,12.78,0,0,0,8.12-2.75,11.79,11.79,0,0,0,4.35-7.11l.08-.51a10.28,10.28,0,0,0,.09-1.44,13.42,13.42,0,0,0-.07-1.45l-.08-.55a9,9,0,0,0-2.67-5.19,13,13,0,0,0-4.43-2.68,42.9,42.9,0,0,0-4.55-1.34,29.31,29.31,0,0,1-3.88-1.15,4.62,4.62,0,0,1-1.93-1.22,3,3,0,0,1-.48-1.89,4,4,0,0,1,1.47-3.09,5.69,5.69,0,0,1,4-1.38,5.51,5.51,0,0,1,3.82,1.38,4.65,4.65,0,0,1,1.49,3.67v1.47H445v-1.47a12,12,0,0,0-1.75-6.58A12.43,12.43,0,0,0,438.68,351.84Z"/><path class="cls-1" d="M340.51,67.38,222.55,0,105.67,66.77l-1.72,1v1.42l-.12.27V308.8l10.45-.08V208.79L220,269.2l2.51,1.43,108.17-61.78v99.87l10.45.08V68.89ZM209.3,19.18,114.41,182.34v-109ZM222.51,17,315,176l13.22,22.74L222.55,259l-105.7-60.37Zm108.2,56.38V182.5l-95-163.42Z"/></g></g></svg>